STARTFONT 2.1
COMMENT
COMMENT Converted from OpenType font "blocks.ttf" by "otf2bdf 3.0".
COMMENT
FONT -FreeType-blocks-Medium-R-Normal--16-160-72-72-P-80-ISO10646-1
SIZE 16 72 72
FONTBOUNDINGBOX 9 9 0 0
STARTPROPERTIES 19
FOUNDRY "FreeType"
FAMILY_NAME "blocks"
WEIGHT_NAME "Medium"
SLANT "R"
SETWIDTH_NAME "Normal"
ADD_STYLE_NAME ""
PIXEL_SIZE 16
POINT_SIZE 160
RESOLUTION_X 72
RESOLUTION_Y 72
SPACING "P"
AVERAGE_WIDTH 80
CHARSET_REGISTRY "ISO10646"
CHARSET_ENCODING "1"
FONT_ASCENT 10
FONT_DESCENT 0
COPYRIGHT "robertfortanier"
_OTF_FONTFILE "blocks.ttf"
_OTF_PSNAME "blocks"
ENDPROPERTIES
CHARS 89
STARTCHAR 0020
ENCODING 32
SWIDTH 312 0
DWIDTH 5 0
BBX 0 0 0 0
BITMAP
ENDCHAR
STARTCHAR 0021
ENCODING 33
SWIDTH 625 0
DWIDTH 10 0
BBX 9 9 0 0
BITMAP
FF80
FF80
FF80
FF80
FF80
FF80
0000
FF80
FF80
ENDCHAR
STARTCHAR 0022
ENCODING 34
SWIDTH 500 0
DWIDTH 8 0
BBX 5 3 2 6
BITMAP
D8
D8
D8
ENDCHAR
STARTCHAR 0023
ENCODING 35
SWIDTH 625 0
DWIDTH 10 0
BBX 9 9 0 0
BITMAP
3600
3600
FF80
FF80
3600
FF80
FF80
3600
3600
ENDCHAR
STARTCHAR 0024
ENCODING 36
SWIDTH 625 0
DWIDTH 10 0
BBX 9 9 0 0
BITMAP
F780
F780
F400
F780
F780
F780
1780
F780
F780
ENDCHAR
STARTCHAR 0025
ENCODING 37
SWIDTH 625 0
DWIDTH 10 0
BBX 9 9 0 0
BITMAP
FF00
DE80
DD80
FB80
F780
EF80
DD80
BD80
7F80
ENDCHAR
STARTCHAR 0026
ENCODING 38
SWIDTH 625 0
DWIDTH 10 0
BBX 9 9 0 0
BITMAP
FB00
FB00
8B00
FB00
FF80
FF80
8300
FF00
FF00
ENDCHAR
STARTCHAR 0027
ENCODING 39
SWIDTH 375 0
DWIDTH 6 0
BBX 2 3 3 6
BITMAP
C0
C0
C0
ENDCHAR
STARTCHAR 0028
ENCODING 40
SWIDTH 625 0
DWIDTH 10 0
BBX 4 9 5 0
BITMAP
F0
80
80
80
80
80
80
80
F0
ENDCHAR
STARTCHAR 0029
ENCODING 41
SWIDTH 312 0
DWIDTH 5 0
BBX 4 9 0 0
BITMAP
F0
10
10
10
10
10
10
10
F0
ENDCHAR
STARTCHAR 002A
ENCODING 42
SWIDTH 625 0
DWIDTH 10 0
BBX 9 9 0 0
BITMAP
DD80
DD80
DD80
FF80
FF80
3E00
F780
F780
F780
ENDCHAR
STARTCHAR 002B
ENCODING 43
SWIDTH 625 0
DWIDTH 10 0
BBX 9 9 0 0
BITMAP
1C00
1C00
1C00
FF80
FF80
FF80
1C00
1C00
1C00
ENDCHAR
STARTCHAR 002C
ENCODING 44
SWIDTH 437 0
DWIDTH 7 0
BBX 3 3 3 0
BITMAP
E0
60
60
ENDCHAR
STARTCHAR 002D
ENCODING 45
SWIDTH 562 0
DWIDTH 9 0
BBX 7 3 1 3
BITMAP
FE
FE
FE
ENDCHAR
STARTCHAR 002E
ENCODING 46
SWIDTH 437 0
DWIDTH 7 0
BBX 3 3 3 0
BITMAP
E0
E0
E0
ENDCHAR
STARTCHAR 002F
ENCODING 47
SWIDTH 625 0
DWIDTH 10 0
BBX 9 9 0 0
BITMAP
0180
0380
0700
0E00
1C00
3800
7000
E000
C000
ENDCHAR
STARTCHAR 0030
ENCODING 48
SWIDTH 625 0
DWIDTH 10 0
BBX 9 9 0 0
BITMAP
FF80
F780
F780
F780
F780
F780
F780
F780
FF80
ENDCHAR
STARTCHAR 0031
ENCODING 49
SWIDTH 625 0
DWIDTH 10 0
BBX 9 9 0 0
BITMAP
FF80
FF80
7F80
7F80
7F80
7F80
7F80
7F80
7F80
ENDCHAR
STARTCHAR 0032
ENCODING 50
SWIDTH 625 0
DWIDTH 10 0
BBX 9 9 0 0
BITMAP
FF80
FF80
3F80
FF80
FF80
FF80
F000
FF80
FF80
ENDCHAR
STARTCHAR 0033
ENCODING 51
SWIDTH 625 0
DWIDTH 10 0
BBX 9 9 0 0
BITMAP
FF80
FF80
3F80
FF80
FC00
FF80
3F80
FF80
FF80
ENDCHAR
STARTCHAR 0034
ENCODING 52
SWIDTH 625 0
DWIDTH 10 0
BBX 9 9 0 0
BITMAP
FF00
DF00
DF00
DF00
DF00
FF80
FF80
1F00
1F00
ENDCHAR
STARTCHAR 0035
ENCODING 53
SWIDTH 625 0
DWIDTH 10 0
BBX 9 9 0 0
BITMAP
FF80
FF80
FC00
FF80
FF80
0F80
EF80
FF80
FF80
ENDCHAR
STARTCHAR 0036
ENCODING 54
SWIDTH 625 0
DWIDTH 10 0
BBX 9 9 0 0
BITMAP
FF80
FF80
FC00
FF80
F780
F780
F780
FF80
FF80
ENDCHAR
STARTCHAR 0037
ENCODING 55
SWIDTH 625 0
DWIDTH 10 0
BBX 9 9 0 0
BITMAP
FF80
FF80
FF80
3F80
3F80
FF80
FF80
3F80
3F80
ENDCHAR
STARTCHAR 0038
ENCODING 56
SWIDTH 625 0
DWIDTH 10 0
BBX 9 9 0 0
BITMAP
FF80
FF80
E380
FF80
FF80
FF80
E380
FF80
FF80
ENDCHAR
STARTCHAR 0039
ENCODING 57
SWIDTH 625 0
DWIDTH 10 0
BBX 9 9 0 0
BITMAP
FF80
FF80
F780
F780
F780
FF80
1F80
FF80
FF80
ENDCHAR
STARTCHAR 003A
ENCODING 58
SWIDTH 437 0
DWIDTH 7 0
BBX 3 9 3 0
BITMAP
E0
E0
E0
00
00
00
E0
E0
E0
ENDCHAR
STARTCHAR 003B
ENCODING 59
SWIDTH 437 0
DWIDTH 7 0
BBX 4 9 2 0
BITMAP
70
70
70
00
00
70
70
F0
F0
ENDCHAR
STARTCHAR 003D
ENCODING 61
SWIDTH 500 0
DWIDTH 8 0
BBX 5 5 2 2
BITMAP
F8
F8
00
F8
F8
ENDCHAR
STARTCHAR 003F
ENCODING 63
SWIDTH 625 0
DWIDTH 10 0
BBX 9 9 0 0
BITMAP
FF80
FF80
FF80
0F80
3F80
3F80
0000
3F80
3F80
ENDCHAR
STARTCHAR 0040
ENCODING 64
SWIDTH 625 0
DWIDTH 10 0
BBX 9 9 0 0
BITMAP
FF80
FF80
C080
DE80
D280
D280
DF80
C000
FF00
ENDCHAR
STARTCHAR 0041
ENCODING 65
SWIDTH 625 0
DWIDTH 10 0
BBX 9 9 0 0
BITMAP
FF80
FF80
FF80
E380
FF80
FF80
F780
F780
F780
ENDCHAR
STARTCHAR 0042
ENCODING 66
SWIDTH 625 0
DWIDTH 10 0
BBX 9 9 0 0
BITMAP
FF80
FF80
E380
FF80
FE00
FF80
E380
FF80
FF80
ENDCHAR
STARTCHAR 0043
ENCODING 67
SWIDTH 625 0
DWIDTH 10 0
BBX 9 9 0 0
BITMAP
FF80
FF80
FF80
FF80
FC00
FF80
FF80
FF80
FF80
ENDCHAR
STARTCHAR 0044
ENCODING 68
SWIDTH 625 0
DWIDTH 10 0
BBX 9 9 0 0
BITMAP
FF80
FF80
FD80
FD80
FD80
FD80
FF80
FF80
FF80
ENDCHAR
STARTCHAR 0045
ENCODING 69
SWIDTH 625 0
DWIDTH 10 0
BBX 9 9 0 0
BITMAP
FF80
FF80
FC00
FF80
FF80
FF80
FC00
FF80
FF80
ENDCHAR
STARTCHAR 0046
ENCODING 70
SWIDTH 625 0
DWIDTH 10 0
BBX 9 9 0 0
BITMAP
FF80
FF80
FC00
FF80
FF80
FF80
FC00
FC00
FC00
ENDCHAR
STARTCHAR 0047
ENCODING 71
SWIDTH 625 0
DWIDTH 10 0
BBX 9 9 0 0
BITMAP
FF80
FF80
F000
F780
F780
F780
F180
FF80
FF80
ENDCHAR
STARTCHAR 0048
ENCODING 72
SWIDTH 625 0
DWIDTH 10 0
BBX 9 9 0 0
BITMAP
F780
F780
F780
FF80
FF80
FF80
F780
F780
F780
ENDCHAR
STARTCHAR 0049
ENCODING 73
SWIDTH 625 0
DWIDTH 10 0
BBX 9 9 0 0
BITMAP
FF80
FF80
0000
FF80
FF80
FF80
FF80
FF80
FF80
ENDCHAR
STARTCHAR 004A
ENCODING 74
SWIDTH 625 0
DWIDTH 10 0
BBX 9 9 0 0
BITMAP
3F80
3F80
0000
3F80
3F80
FF80
FF80
FF80
FF80
ENDCHAR
STARTCHAR 004B
ENCODING 75
SWIDTH 625 0
DWIDTH 10 0
BBX 9 9 0 0
BITMAP
FB80
FB80
FB80
FF80
FE00
FF80
FB80
FB80
FB80
ENDCHAR
STARTCHAR 004C
ENCODING 76
SWIDTH 625 0
DWIDTH 10 0
BBX 9 9 0 0
BITMAP
FE00
FE00
FE00
FE00
FE00
FF80
FF80
FF80
FF80
ENDCHAR
STARTCHAR 004D
ENCODING 77
SWIDTH 625 0
DWIDTH 10 0
BBX 9 9 0 0
BITMAP
F780
F780
FF80
FF80
FF80
FF80
DD80
DD80
DD80
ENDCHAR
STARTCHAR 004E
ENCODING 78
SWIDTH 625 0
DWIDTH 10 0
BBX 9 9 0 0
BITMAP
FB80
FB80
FB80
FF80
FF80
FF80
EF80
EF80
EF80
ENDCHAR
STARTCHAR 004F
ENCODING 79
SWIDTH 625 0
DWIDTH 10 0
BBX 9 9 0 0
BITMAP
FF80
FF80
FF80
F780
F780
F780
F780
FF80
FF80
ENDCHAR
STARTCHAR 0050
ENCODING 80
SWIDTH 625 0
DWIDTH 10 0
BBX 9 9 0 0
BITMAP
FF80
FF80
FF80
E380
FF80
FF80
FC00
FC00
FC00
ENDCHAR
STARTCHAR 0051
ENCODING 81
SWIDTH 625 0
DWIDTH 10 0
BBX 9 9 0 0
BITMAP
FF80
FF80
FF80
F780
F780
F780
F780
FD80
FD80
ENDCHAR
STARTCHAR 0052
ENCODING 82
SWIDTH 625 0
DWIDTH 10 0
BBX 9 9 0 0
BITMAP
FF80
FF80
E380
FF80
FE00
FF80
FB80
FB80
FB80
ENDCHAR
STARTCHAR 0053
ENCODING 83
SWIDTH 625 0
DWIDTH 10 0
BBX 9 9 0 0
BITMAP
FF80
FF80
FC00
FF80
FF80
1F80
FF80
FF80
FF80
ENDCHAR
STARTCHAR 0054
ENCODING 84
SWIDTH 625 0
DWIDTH 10 0
BBX 9 9 0 0
BITMAP
FF80
FF80
FF80
FF80
FF80
7F00
7F00
7F00
7F00
ENDCHAR
STARTCHAR 0055
ENCODING 85
SWIDTH 625 0
DWIDTH 10 0
BBX 9 9 0 0
BITMAP
F780
F780
F780
F780
FF80
FF80
FF80
FF80
FF80
ENDCHAR
STARTCHAR 0056
ENCODING 86
SWIDTH 625 0
DWIDTH 10 0
BBX 9 9 0 0
BITMAP
F780
F780
F780
F780
FF80
FF80
7F00
7F00
7F00
ENDCHAR
STARTCHAR 0057
ENCODING 87
SWIDTH 625 0
DWIDTH 10 0
BBX 9 9 0 0
BITMAP
DD80
DD80
DD80
FF80
FF80
FF80
FF80
F780
F780
ENDCHAR
STARTCHAR 0058
ENCODING 88
SWIDTH 625 0
DWIDTH 10 0
BBX 9 9 0 0
BITMAP
F780
F780
F780
FF80
1C00
FF80
F780
F780
F780
ENDCHAR
STARTCHAR 0059
ENCODING 89
SWIDTH 625 0
DWIDTH 10 0
BBX 9 9 0 0
BITMAP
F780
F780
FF80
FF80
FF80
FF80
1C00
1C00
1C00
ENDCHAR
STARTCHAR 005A
ENCODING 90
SWIDTH 625 0
DWIDTH 10 0
BBX 9 9 0 0
BITMAP
FF80
FF80
1F80
FF80
FF80
FF80
FC00
FF80
FF80
ENDCHAR
STARTCHAR 005C
ENCODING 92
SWIDTH 625 0
DWIDTH 10 0
BBX 9 9 0 0
BITMAP
C000
E000
7000
3800
1C00
0E00
0700
0380
0180
ENDCHAR
STARTCHAR 0061
ENCODING 97
SWIDTH 500 0
DWIDTH 8 0
BBX 7 7 0 0
BITMAP
FE
0E
FE
FE
EE
EE
FE
ENDCHAR
STARTCHAR 0062
ENCODING 98
SWIDTH 500 0
DWIDTH 8 0
BBX 7 7 0 0
BITMAP
F0
F0
FE
FE
EE
EE
FE
ENDCHAR
STARTCHAR 0063
ENCODING 99
SWIDTH 500 0
DWIDTH 8 0
BBX 7 7 0 0
BITMAP
FE
FE
FE
E0
FE
FE
FE
ENDCHAR
STARTCHAR 0064
ENCODING 100
SWIDTH 500 0
DWIDTH 8 0
BBX 7 7 0 0
BITMAP
1E
1E
FE
FE
EE
EE
FE
ENDCHAR
STARTCHAR 0065
ENCODING 101
SWIDTH 500 0
DWIDTH 8 0
BBX 7 7 0 0
BITMAP
FE
FE
C6
FE
FE
E0
FE
ENDCHAR
STARTCHAR 0066
ENCODING 102
SWIDTH 500 0
DWIDTH 8 0
BBX 7 7 0 0
BITMAP
FE
FE
F0
FE
FE
F0
F0
ENDCHAR
STARTCHAR 0067
ENCODING 103
SWIDTH 500 0
DWIDTH 8 0
BBX 7 7 0 0
BITMAP
FE
FE
C6
FE
FE
0E
FE
ENDCHAR
STARTCHAR 0068
ENCODING 104
SWIDTH 500 0
DWIDTH 8 0
BBX 7 7 0 0
BITMAP
F0
F0
FE
FE
EE
EE
EE
ENDCHAR
STARTCHAR 0069
ENCODING 105
SWIDTH 500 0
DWIDTH 8 0
BBX 7 7 0 0
BITMAP
FE
00
FE
FE
FE
FE
FE
ENDCHAR
STARTCHAR 006A
ENCODING 106
SWIDTH 500 0
DWIDTH 8 0
BBX 7 7 0 0
BITMAP
3E
00
3E
3E
3E
FE
FE
ENDCHAR
STARTCHAR 006B
ENCODING 107
SWIDTH 500 0
DWIDTH 8 0
BBX 7 7 0 0
BITMAP
F0
F6
FE
F8
FE
F6
F6
ENDCHAR
STARTCHAR 006C
ENCODING 108
SWIDTH 500 0
DWIDTH 8 0
BBX 7 7 0 0
BITMAP
F8
F8
F8
F8
FE
FE
FE
ENDCHAR
STARTCHAR 006D
ENCODING 109
SWIDTH 500 0
DWIDTH 8 0
BBX 7 7 0 0
BITMAP
EE
EE
FE
FE
FE
D6
D6
ENDCHAR
STARTCHAR 006E
ENCODING 110
SWIDTH 500 0
DWIDTH 8 0
BBX 7 7 0 0
BITMAP
F6
F6
FE
FE
FE
DE
DE
ENDCHAR
STARTCHAR 006F
ENCODING 111
SWIDTH 500 0
DWIDTH 8 0
BBX 7 7 0 0
BITMAP
FE
FE
EE
EE
EE
EE
FE
ENDCHAR
STARTCHAR 0070
ENCODING 112
SWIDTH 500 0
DWIDTH 8 0
BBX 7 7 0 0
BITMAP
FE
FE
C6
FE
F8
F8
F8
ENDCHAR
STARTCHAR 0071
ENCODING 113
SWIDTH 500 0
DWIDTH 8 0
BBX 7 7 0 0
BITMAP
FE
FE
C6
FE
3E
3E
3E
ENDCHAR
STARTCHAR 0072
ENCODING 114
SWIDTH 500 0
DWIDTH 8 0
BBX 7 7 0 0
BITMAP
FE
FE
FE
F8
F8
F8
F8
ENDCHAR
STARTCHAR 0073
ENCODING 115
SWIDTH 500 0
DWIDTH 8 0
BBX 7 7 0 0
BITMAP
FE
F0
FE
FE
FE
1E
FE
ENDCHAR
STARTCHAR 0074
ENCODING 116
SWIDTH 500 0
DWIDTH 8 0
BBX 7 7 0 0
BITMAP
F0
F0
FE
FE
F0
FE
FE
ENDCHAR
STARTCHAR 0075
ENCODING 117
SWIDTH 500 0
DWIDTH 8 0
BBX 7 7 0 0
BITMAP
EE
EE
EE
EE
FE
FE
FE
ENDCHAR
STARTCHAR 0076
ENCODING 118
SWIDTH 500 0
DWIDTH 8 0
BBX 7 7 0 0
BITMAP
EE
EE
EE
FE
FE
7C
7C
ENDCHAR
STARTCHAR 0077
ENCODING 119
SWIDTH 500 0
DWIDTH 8 0
BBX 7 7 0 0
BITMAP
D6
D6
FE
FE
FE
EE
EE
ENDCHAR
STARTCHAR 0078
ENCODING 120
SWIDTH 500 0
DWIDTH 8 0
BBX 7 7 0 0
BITMAP
EE
EE
FE
38
FE
EE
EE
ENDCHAR
STARTCHAR 0079
ENCODING 121
SWIDTH 500 0
DWIDTH 8 0
BBX 7 7 0 0
BITMAP
EE
EE
EE
7C
7C
7C
7C
ENDCHAR
STARTCHAR 007A
ENCODING 122
SWIDTH 500 0
DWIDTH 8 0
BBX 7 7 0 0
BITMAP
FE
1E
FE
FE
FE
F0
FE
ENDCHAR
STARTCHAR 00A0
ENCODING 160
SWIDTH 312 0
DWIDTH 5 0
BBX 0 0 0 0
BITMAP
ENDCHAR
STARTCHAR 00A5
ENCODING 165
SWIDTH 625 0
DWIDTH 10 0
BBX 9 9 0 0
BITMAP
F780
F780
FF80
FF80
FF80
1C00
7F00
1C00
1C00
ENDCHAR
STARTCHAR 00A9
ENCODING 169
SWIDTH 625 0
DWIDTH 10 0
BBX 9 9 0 0
BITMAP
FF80
8080
BE80
A280
AE80
A280
BE80
8080
FF80
ENDCHAR
STARTCHAR 20AC
ENCODING 8364
SWIDTH 625 0
DWIDTH 10 0
BBX 9 9 0 0
BITMAP
7F80
7F80
7C00
FF80
7C00
FF80
7C00
7F80
7F80
ENDCHAR
STARTCHAR 3000
ENCODING 12288
SWIDTH 1000 0
DWIDTH 16 0
BBX 0 0 0 0
BITMAP
ENDCHAR
ENDFONT
